<svg id="icono_moteles" xmlns="http://www.w3.org/2000/svg" xmlns:xlink="http://www.w3.org/1999/xlink" width="30" height="30" viewBox="0 0 30 30">
  <defs>
    <clipPath id="clip-path">
      <rect id="Rectángulo_76" data-name="Rectángulo 76" width="30" height="30" fill="#eeeff1" stroke="#707070" stroke-width="1"/>
    </clipPath>
  </defs>
  <g id="Enmascarar_grupo_18" data-name="Enmascarar grupo 18" clip-path="url(#clip-path)">
    <path id="Trazado_199" data-name="Trazado 199" d="M25.915,7.238a2.779,2.779,0,0,0-2.944-2.6h-6.31V2.921a2.981,2.981,0,0,0,0-.3A2.777,2.777,0,0,0,13.732,0H2.947a2.865,2.865,0,0,0-.321,0A2.782,2.782,0,0,0,0,2.938V24.831c0,.745.348,1.091,1.1,1.091H24.816a.954.954,0,0,0,1.1-1.093V7.563a2.711,2.711,0,0,0,0-.325m-15.707-2.6q.9-.009,1.792,0a.925.925,0,1,1,.049,1.849H11.1c-.3,0-.6.005-.9,0a.924.924,0,0,1,.011-1.848m-5.629,0H4.64q.924-.012,1.85,0a.923.923,0,1,1,0,1.846c-.308.009-.616,0-.925,0h0c-.308,0-.617.006-.925,0a.924.924,0,0,1-.061-1.847m2.847,5.545a.922.922,0,0,1-.916.928c-.318.012-.636,0-.954,0v0c-.308,0-.617.007-.925,0a.928.928,0,0,1-.924-.918.917.917,0,0,1,.9-.928h.007q.939-.016,1.879,0a.923.923,0,0,1,.929.916M5.555,15.741h0c-.308,0-.617.006-.925,0a.924.924,0,1,1-.051-1.847h.06q.91-.012,1.821,0a.924.924,0,1,1-.009,1.848c-.3.005-.6,0-.9,0m4.615,8.314H6.5V20.384h3.667Zm1.889-8.317c-.318.011-.636,0-.954,0v0c-.308,0-.617.007-.925,0a.927.927,0,0,1-.922-.92.917.917,0,0,1,.906-.926h.007q.939-.015,1.879,0a.922.922,0,1,1,.009,1.844m.035-4.63h-.058q-.924.015-1.85,0a.924.924,0,0,1,.01-1.847c.318-.007.636,0,.954,0h.867a.924.924,0,1,1,.077,1.846m7.368-1.844q.9-.009,1.792,0a.925.925,0,0,1,.047,1.85h-.952c-.3,0-.6,0-.9,0a.924.924,0,0,1,.013-1.848m1.846,11.1c-.318.011-.636,0-.954,0l0,0c-.308,0-.617.007-.925,0a.923.923,0,0,1-.01-1.846h.005q.939-.015,1.879,0a.922.922,0,0,1,0,1.844m.032-4.625c-.02,0-.041,0-.061,0-.308.007-.617,0-.925,0h0c-.308,0-.617.007-.925,0a.923.923,0,0,1,0-1.846q.924-.015,1.85,0a.924.924,0,0,1,.061,1.847" transform="translate(2.114 2.032)" fill="#1c1e28"/>
  </g>
</svg>
