<svg id="icono_estrella" xmlns="http://www.w3.org/2000/svg" xmlns:xlink="http://www.w3.org/1999/xlink" width="25" height="25" viewBox="0 0 25 25">
  <defs>
    <clipPath id="clip-path">
      <rect id="Rect치ngulo_148" data-name="Rect치ngulo 148" width="25" height="25" transform="translate(0.38)" fill="#fff" stroke="#707070" stroke-width="1"/>
    </clipPath>
  </defs>
  <g id="Enmascarar_grupo_50" data-name="Enmascarar grupo 50" transform="translate(-0.38)" clip-path="url(#clip-path)">
    <path id="Uni칩n_7" data-name="Uni칩n 7" d="M14.546,19.411c-.464-.229-.926-.475-1.374-.711l-.511-.27-.52-.273c-.608-.318-1.237-.648-1.852-.98a.17.17,0,0,0-.071-.026.188.188,0,0,0-.081.029c-1.41.75-2.813,1.487-4.169,2.193a2.01,2.01,0,0,1-.923.229,1.814,1.814,0,0,1-1.773-1.35,2.481,2.481,0,0,1-.026-1c.217-1.345.462-2.782.773-4.519.015-.079.011-.087-.048-.144q-.807-.783-1.61-1.568Q1.5,10.181.64,9.345a1.844,1.844,0,0,1-.536-2A1.855,1.855,0,0,1,1.725,6.059c.845-.116,1.7-.244,2.536-.365q1.04-.153,2.082-.3c.05-.008.052-.008.086-.076.709-1.45,1.438-2.924,2.082-4.225A1.87,1.87,0,0,1,10.186,0h.032a1.886,1.886,0,0,1,1.713,1.112q.373.761.75,1.521c.426.866.87,1.762,1.3,2.646.048.1.066.107.149.118.986.137,1.986.284,2.955.427l1.665.242a1.882,1.882,0,0,1,1.07,3.249l-.937.915q-1.219,1.188-2.441,2.374a.142.142,0,0,0-.039.049.155.155,0,0,0,0,.06c.282,1.6.555,3.208.805,4.708a1.9,1.9,0,0,1-1.828,2.2A1.873,1.873,0,0,1,14.546,19.411ZM9.705,3.192q-.754,1.525-1.5,3.05A1.9,1.9,0,0,1,6.72,7.357c-.476.073-.962.141-1.43.208-.252.036-.5.071-.753.108L4.1,7.737c-.637.094-1.295.189-1.945.286,1.261,1.232,2.3,2.24,3.25,3.168a1.925,1.925,0,0,1,.6,1.8q-.216,1.246-.427,2.492Q5.4,16.493,5.23,17.5l1.2-.629c.915-.478,1.86-.973,2.785-1.467a2.009,2.009,0,0,1,2,0c1.028.548,2.077,1.1,3.092,1.629q.449.233.9.469-.092-.536-.181-1.064c-.184-1.086-.375-2.209-.575-3.312a2.067,2.067,0,0,1,.642-2c.732-.7,1.469-1.421,2.182-2.117q.507-.5,1.016-.994c-.374-.053-.745-.108-1.119-.165-1.08-.158-2.2-.323-3.294-.472a2.031,2.031,0,0,1-1.673-1.2c-.474-.981-.966-1.973-1.442-2.935q-.272-.546-.542-1.091Z" transform="translate(2.665 2.521)" fill="#ff7122"/>
  </g>
</svg>
