<svg id="icono_sonido" xmlns="http://www.w3.org/2000/svg" xmlns:xlink="http://www.w3.org/1999/xlink" width="25" height="25" viewBox="0 0 25 25">
  <defs>
    <clipPath id="clip-path">
      <rect id="Rectángulo_206" data-name="Rectángulo 206" width="25" height="25" fill="#1a1a1a" stroke="#707070" stroke-width="1"/>
    </clipPath>
  </defs>
  <g id="Enmascarar_grupo_72" data-name="Enmascarar grupo 72" clip-path="url(#clip-path)">
    <g id="Grupo_441" data-name="Grupo 441" transform="translate(-1216.885 -1110.498)">
      <path id="Trazado_239" data-name="Trazado 239" d="M53.543,20.6a11.38,11.38,0,0,1-.251,1.114,7.177,7.177,0,0,1-.461,1.047.623.623,0,0,1-.886.273.631.631,0,0,1-.226-.886,3.821,3.821,0,0,0,0-3.948.63.63,0,0,1,.227-.886.639.639,0,0,1,.89.273,5.019,5.019,0,0,1,.669,2,1.267,1.267,0,0,0,.038.162Z" transform="translate(1186.745 1102.91)" fill="#1c1e28"/>
      <path id="Trazado_240" data-name="Trazado 240" d="M13.379,9.57q0-3.758,0-7.515A1.922,1.922,0,0,1,15.423,0h7.409a1.92,1.92,0,0,1,2.044,2.034q0,7.547,0,15.094a1.92,1.92,0,0,1-2.044,2.034H15.423a1.921,1.921,0,0,1-2.044-2.035q0-3.779,0-7.558m2.555,3.835a3.194,3.194,0,1,0,3.2-3.185,3.2,3.2,0,0,0-3.2,3.185m3.193-4.463a3.194,3.194,0,1,0-3.193-3.194,3.2,3.2,0,0,0,3.193,3.194" transform="translate(1210.258 1113.498)" fill="#1c1e28"/>
      <path id="Trazado_241" data-name="Trazado 241" d="M0,20.219a5.171,5.171,0,0,1,.746-2.634.639.639,0,1,1,1.1.641,3.736,3.736,0,0,0-.072,3.846,1.049,1.049,0,0,1,.111.561.564.564,0,0,1-.509.472A.618.618,0,0,1,.73,22.8,5.035,5.035,0,0,1,0,20.219" transform="translate(1218.483 1102.91)" fill="#1c1e28"/>
      <path id="Trazado_242" data-name="Trazado 242" d="M6.631,22.026A2.536,2.536,0,0,1,7.1,20.589a.644.644,0,0,1,.895-.194.636.636,0,0,1,.166.9,1.291,1.291,0,0,0,0,1.528.632.632,0,0,1-.174.9.642.642,0,0,1-.893-.2,2.559,2.559,0,0,1-.463-1.489" transform="translate(1214.406 1101.025)" fill="#1c1e28"/>
      <path id="Trazado_243" data-name="Trazado 243" d="M47.346,22.156a2.479,2.479,0,0,1-.465,1.364.645.645,0,0,1-.895.194.636.636,0,0,1-.166-.9,1.292,1.292,0,0,0,0-1.529.631.631,0,0,1,.174-.9.644.644,0,0,1,.893.2,2.667,2.667,0,0,1,.462,1.564" transform="translate(1190.386 1101.026)" fill="#1c1e28"/>
      <path id="Trazado_244" data-name="Trazado 244" d="M27.161,31.77a1.916,1.916,0,1,1-1.9-1.92,1.921,1.921,0,0,1,1.9,1.92m-1.908.633a.638.638,0,1,0-.646-.625.646.646,0,0,0,.646.625" transform="translate(1204.14 1095.147)" fill="#1c1e28"/>
      <path id="Trazado_245" data-name="Trazado 245" d="M25.244,9.951a1.916,1.916,0,1,1-1.915,1.9,1.92,1.92,0,0,1,1.915-1.9m.007,2.554a.638.638,0,1,0-.645-.626.645.645,0,0,0,.645.626" transform="translate(1204.141 1107.38)" fill="#1c1e28"/>
    </g>
  </g>
</svg>
