<svg id="icono_habitación" xmlns="http://www.w3.org/2000/svg" xmlns:xlink="http://www.w3.org/1999/xlink" width="25" height="25" viewBox="0 0 25 25">
  <defs>
    <clipPath id="clip-path">
      <rect id="Rectángulo_150" data-name="Rectángulo 150" width="25" height="25" fill="#fff" stroke="#707070" stroke-width="1"/>
    </clipPath>
  </defs>
  <g id="Enmascarar_grupo_52" data-name="Enmascarar grupo 52" clip-path="url(#clip-path)">
    <path id="Trazado_167" data-name="Trazado 167" d="M0,13.759V8.971a1.372,1.372,0,0,1,.95-1c0-.131,0-.257,0-.383a1.887,1.887,0,0,1,.733-1.5.354.354,0,0,0,.152-.315q-.008-1.89,0-3.781A1.924,1.924,0,0,1,3.825,0q5.9,0,11.8,0a2.23,2.23,0,0,1,.562.066A1.92,1.92,0,0,1,17.62,2q.006,1.881,0,3.762a.351.351,0,0,0,.148.318,1.8,1.8,0,0,1,.7,1.2c.033.224.033.453.049.684a.017.017,0,0,0,.008.009c.047.019.1.034.141.056a1.225,1.225,0,0,1,.782,1.158c.011,1.456.008,2.913,0,4.369a1.262,1.262,0,0,1-.945,1.213c-.085.023-.172.036-.267.055,0,.16,0,.312,0,.463a.566.566,0,0,1-.57.6.573.573,0,0,1-.568-.608c0-.15,0-.3,0-.452H2.353c0,.164,0,.315,0,.465a.569.569,0,1,1-1.137,0c0-.156,0-.312,0-.476a1.257,1.257,0,0,1-.965-.532A3.735,3.735,0,0,1,0,13.759m9.714-.083h8.32c.263,0,.282-.019.282-.278q0-2.023,0-4.046c0-.267-.015-.283-.275-.283H1.421c-.267,0-.282.015-.282.276q0,2.013,0,4.027c0,.3.006.3.313.3H9.714M2.971,5.632H3.73c0-.315,0-.606,0-.9A1.275,1.275,0,0,1,5.087,3.381q1.453,0,2.907,0a1.608,1.608,0,0,1,.321.023A1.272,1.272,0,0,1,9.341,4.669c.006.321,0,.643,0,.975h.772c0-.338-.006-.665,0-.993A1.264,1.264,0,0,1,11.4,3.382c1.013-.005,2.026,0,3.04,0a1.231,1.231,0,0,1,.731.226A1.274,1.274,0,0,1,15.724,4.7c0,.314,0,.628,0,.948h.759V5.429q0-1.691,0-3.382a.808.808,0,0,0-.914-.908H3.886a.811.811,0,0,0-.915.926q0,1.681,0,3.363ZM17.354,7.918a.98.98,0,0,0-.267-.928.95.95,0,0,0-.673-.2q-6.685,0-13.37,0c-.07,0-.139,0-.209.005a.769.769,0,0,0-.558.285,1.04,1.04,0,0,0-.178.835Zm-4.415-3.4c-.494,0-.987,0-1.481,0-.144,0-.21.056-.208.2,0,.24,0,.481,0,.721,0,.154.065.217.216.217q1.452,0,2.9,0c.15,0,.221-.06.218-.215,0-.234-.006-.468,0-.7,0-.163-.064-.225-.226-.223-.475.006-.949,0-1.424,0m-6.393,0c-.487,0-.974,0-1.462,0-.153,0-.221.057-.218.212.005.24,0,.481,0,.721,0,.145.065.207.207.207q1.462,0,2.923,0c.156,0,.212-.076.209-.225-.005-.228-.007-.456,0-.683.006-.173-.065-.235-.236-.233-.474.007-.949,0-1.424,0" transform="translate(2.771 4.555)" fill="#1a1a1a"/>
  </g>
</svg>
