<svg id="icono_más-cercano" xmlns="http://www.w3.org/2000/svg" xmlns:xlink="http://www.w3.org/1999/xlink" width="25" height="25" viewBox="0 0 25 25">
  <defs>
    <clipPath id="clip-path">
      <rect id="Rectángulo_147" data-name="Rectángulo 147" width="25" height="25" fill="#fff" stroke="#707070" stroke-width="1"/>
    </clipPath>
  </defs>
  <g id="Enmascarar_grupo_49" data-name="Enmascarar grupo 49" clip-path="url(#clip-path)">
    <g id="Grupo_348" data-name="Grupo 348" transform="translate(-188.751 -201.739)">
      <path id="Trazado_160" data-name="Trazado 160" d="M0,30.592c.036-.154.067-.309.108-.46a3.108,3.108,0,0,1,3.015-2.307c2.3,0,4.6,0,6.9,0a1.707,1.707,0,0,0,1.743-1.756,1.683,1.683,0,0,0-1.6-1.651c-1.823-.022-3.647-.01-5.47-.006a.369.369,0,0,0-.206.09,1.038,1.038,0,1,1,0-1.576.5.5,0,0,0,.289.094c1.759.006,3.517,0,5.276.006a3.091,3.091,0,0,1,.029,6.182c-2.306.008-4.612,0-6.919,0a1.73,1.73,0,0,0-.139,3.457c.086,0,.173,0,.259,0q7.027,0,14.054,0a.563.563,0,0,0,.389-.133,1.023,1.023,0,0,1,1.4.142,1.034,1.034,0,0,1-.016,1.38,1.056,1.056,0,0,1-1.413.117.6.6,0,0,0-.344-.119c-4.692-.006-9.384-.023-14.075,0a3.17,3.17,0,0,1-3.243-2.7A.332.332,0,0,0,0,31.284v-.692" transform="translate(190.183 190.916)" fill="#1a1a1a"/>
      <path id="Trazado_161" data-name="Trazado 161" d="M4.2,0A9.237,9.237,0,0,1,5.13.245,3.835,3.835,0,0,1,7.365,5.2,9.1,9.1,0,0,1,5.537,8.185c-.39.451-.814.875-1.24,1.294a.655.655,0,0,1-.953.026A11.78,11.78,0,0,1,.469,5.736,12.667,12.667,0,0,1,0,4.2V3.418A.875.875,0,0,0,.04,3.3,3.764,3.764,0,0,1,2.709.17C2.938.092,3.18.056,3.417,0ZM3.789,8.014C3.821,8,3.838,8,3.847,7.992A10.468,10.468,0,0,0,5.854,5.25a2.915,2.915,0,0,0,.287-2.07A2.435,2.435,0,0,0,3.3,1.437,2.448,2.448,0,0,0,1.413,4.167a5.283,5.283,0,0,0,.94,2.113A11.688,11.688,0,0,0,3.789,8.014" transform="translate(190.183 203.167)" fill="#1a1a1a"/>
      <path id="Trazado_162" data-name="Trazado 162" d="M35.173,21.073a3.862,3.862,0,0,1,3.876,4.908,7.667,7.667,0,0,1-1.507,2.768c-.5.612-1.049,1.186-1.6,1.756a.685.685,0,0,1-1.081,0A12.229,12.229,0,0,1,32.047,26.8a3.942,3.942,0,0,1-.017-3.66,3.671,3.671,0,0,1,3.144-2.066m.226,8.038a10.528,10.528,0,0,0,1.8-2.321,6.475,6.475,0,0,0,.547-1.331,2.413,2.413,0,0,0-3.629-2.624,2.451,2.451,0,0,0-.973,2.956,9.534,9.534,0,0,0,2.258,3.32" transform="translate(173.119 191.783)" fill="#1a1a1a"/>
      <path id="Trazado_163" data-name="Trazado 163" d="M7.052,6.023A1.038,1.038,0,1,1,6.023,7.057,1.038,1.038,0,0,1,7.052,6.023" transform="translate(186.929 199.914)" fill="#1a1a1a"/>
      <path id="Trazado_164" data-name="Trazado 164" d="M39.7,28.143a1.038,1.038,0,1,1-1.02-1.045,1.041,1.041,0,0,1,1.02,1.045" transform="translate(169.857 188.529)" fill="#1a1a1a"/>
    </g>
  </g>
</svg>
