<svg id="Icono_ubicación" xmlns="http://www.w3.org/2000/svg" xmlns:xlink="http://www.w3.org/1999/xlink" width="20" height="20" viewBox="0 0 20 20">
  <defs>
    <clipPath id="clip-path">
      <rect id="Rectángulo_39" data-name="Rectángulo 39" width="20" height="20" fill="#fff" stroke="#707070" stroke-width="1"/>
    </clipPath>
  </defs>
  <g id="Enmascarar_grupo_3" data-name="Enmascarar grupo 3" clip-path="url(#clip-path)">
    <g id="Grupo_43" data-name="Grupo 43" transform="translate(2.435 0.505)">
      <path id="Unión_1" data-name="Unión 1" d="M6.447,18.6a7.291,7.291,0,0,1-.921-.9,44.422,44.422,0,0,1-3.437-4.585A14.937,14.937,0,0,1,.3,9.568,11.531,11.531,0,0,1,.017,7.842H.009L0,7.655A7.49,7.49,0,0,1,6.218.119,7.979,7.979,0,0,1,7.583,0,7.585,7.585,0,0,1,14.83,5.3a6.686,6.686,0,0,1,.042,3.834,15.954,15.954,0,0,1-2.216,4.53,37.113,37.113,0,0,1-2.9,3.8,11.683,11.683,0,0,1-1.122,1.145,1.62,1.62,0,0,1-1.079.385A1.733,1.733,0,0,1,6.447,18.6ZM6.418,1.271A6.317,6.317,0,0,0,1.172,7.62l0,.1a9.535,9.535,0,0,0,.245,1.5A13.992,13.992,0,0,0,3.077,12.49a43.307,43.307,0,0,0,3.348,4.463,6.166,6.166,0,0,0,.779.758.565.565,0,0,0,.351.109.469.469,0,0,0,.3-.092A10.375,10.375,0,0,0,8.867,16.7a35.991,35.991,0,0,0,2.811-3.678,14.924,14.924,0,0,0,2.063-4.193,5.461,5.461,0,0,0-.027-3.173A6.418,6.418,0,0,0,7.583,1.17,6.9,6.9,0,0,0,6.418,1.271Z" fill="#1c1e28"/>
      <path id="Unión_4" data-name="Unión 4" d="M0,3.73A3.7,3.7,0,0,1,3.731,0,3.691,3.691,0,0,1,7.453,3.734,3.687,3.687,0,0,1,3.727,7.453,3.689,3.689,0,0,1,0,3.73ZM3.727,7.3Zm0-.4h0ZM1.857,1.857A2.621,2.621,0,0,0,1.1,3.729a2.6,2.6,0,0,0,2.63,2.629h0A2.6,2.6,0,0,0,6.358,3.733,2.6,2.6,0,0,0,3.738,1.1,2.639,2.639,0,0,0,1.857,1.857Z" transform="translate(3.848 3.845)" fill="#1c1e28"/>
    </g>
  </g>
</svg>
