<svg id="icono_borrador" xmlns="http://www.w3.org/2000/svg" xmlns:xlink="http://www.w3.org/1999/xlink" width="25" height="25" viewBox="0 0 25 25">
  <defs>
    <clipPath id="clip-path">
      <rect id="Rectángulo_181" data-name="Rectángulo 181" width="25" height="25" transform="translate(45.158)" fill="#fff" stroke="#707070" stroke-width="1"/>
    </clipPath>
  </defs>
  <g id="Enmascarar_grupo_57" data-name="Enmascarar grupo 57" transform="translate(-45.158)" clip-path="url(#clip-path)">
    <path id="Trazado_174" data-name="Trazado 174" d="M16.882,6.5c-.026.112-.049.224-.08.334a2.366,2.366,0,0,1-.64,1.057q-3.107,3.1-6.213,6.209a1.233,1.233,0,0,1-.16.116l.031.058h5.855a.612.612,0,1,1,.088,1.22c-.044,0-.088,0-.132,0H.7a.965.965,0,0,1-.228-.021.608.608,0,0,1-.464-.667.6.6,0,0,1,.6-.531c.637,0,1.275,0,1.911,0h.221c-.058-.064-.093-.106-.133-.145q-.949-.95-1.9-1.9A2.229,2.229,0,0,1,.713,8.968L5.653,4.027,8.975.706a2.28,2.28,0,0,1,3.3,0c1.287,1.284,2.569,2.574,3.859,3.855a2.358,2.358,0,0,1,.726,1.369.13.13,0,0,0,.023.042ZM6.424,4.992c-.014.012-.035.029-.054.048Q3.959,7.451,1.549,9.863a1,1,0,0,0,.017,1.493q1.4,1.4,2.794,2.8a.387.387,0,0,0,.3.122q1.606-.006,3.212,0a.368.368,0,0,0,.288-.119q1.8-1.81,3.609-3.613c.038-.038.072-.078.1-.109L6.424,4.992m.918-.918,5.447,5.449c.017-.015.049-.044.08-.074Q14.086,8.232,15.3,7.013A1.017,1.017,0,0,0,15.3,5.459L11.4,1.568a1.017,1.017,0,0,0-1.566,0L7.427,3.983c-.038.038-.074.079-.085.091" transform="translate(49.217 4.251)" fill="#1c1e28"/>
  </g>
</svg>
