<svg id="icono_promociones" xmlns="http://www.w3.org/2000/svg" xmlns:xlink="http://www.w3.org/1999/xlink" width="25" height="25" viewBox="0 0 25 25">
  <defs>
    <clipPath id="clip-path">
      <rect id="Rectángulo_149" data-name="Rectángulo 149" width="25" height="25" fill="#fff" stroke="#707070" stroke-width="1"/>
    </clipPath>
  </defs>
  <g id="Grupo_51" data-name="Grupo 51" clip-path="url(#clip-path)">
    <g id="Grupo_349" data-name="Grupo 349" transform="translate(-190.149 -3782.196)">
      <path id="Trazado_166" data-name="Trazado 166" d="M8.7,17.393a3.978,3.978,0,0,1-3.049-1.42,3.815,3.815,0,0,1-3.1-1.127A3.983,3.983,0,0,1,1.4,11.685,3.819,3.819,0,0,1,0,8.7,3.977,3.977,0,0,1,1.42,5.647a3.819,3.819,0,0,1,1.127-3.1A3.966,3.966,0,0,1,5.708,1.4,3.821,3.821,0,0,1,8.7,0a3.978,3.978,0,0,1,3.049,1.42,3.818,3.818,0,0,1,3.1,1.127A3.982,3.982,0,0,1,16,5.708a3.818,3.818,0,0,1,1.4,2.988,3.976,3.976,0,0,1-1.42,3.049,3.818,3.818,0,0,1-1.127,3.1A3.989,3.989,0,0,1,11.685,16a3.821,3.821,0,0,1-2.988,1.4M5.706,14.549a1.36,1.36,0,0,1,1.049.49,2.536,2.536,0,0,0,3.883,0,1.364,1.364,0,0,1,1.171-.485,2.536,2.536,0,0,0,2.745-2.745,1.36,1.36,0,0,1,.486-1.172,2.536,2.536,0,0,0,0-3.881,1.361,1.361,0,0,1-.486-1.172A2.536,2.536,0,0,0,11.81,2.838a1.357,1.357,0,0,1-1.172-.485,2.536,2.536,0,0,0-3.883,0,1.372,1.372,0,0,1-1.171.486A2.536,2.536,0,0,0,2.839,5.584a1.36,1.36,0,0,1-.485,1.172,2.535,2.535,0,0,0,0,3.881,1.361,1.361,0,0,1,.485,1.172,2.536,2.536,0,0,0,2.744,2.745C5.624,14.55,5.665,14.549,5.706,14.549Zm3.571-3.581,3.434-3.31A.725.725,0,0,0,11.7,6.614L8.261,9.934a.731.731,0,0,1-1.044-.018L5.567,8.382A.725.725,0,1,0,4.58,9.443L6.212,10.96a2.173,2.173,0,0,0,1.541.637,2.15,2.15,0,0,0,1.525-.628Z" transform="translate(193.952 3786)" fill="#1a1a1a"/>
    </g>
  </g>
</svg>
