<svg xmlns="http://www.w3.org/2000/svg" xmlns:xlink="http://www.w3.org/1999/xlink" width="30" height="30" viewBox="0 0 30 30">
  <defs>
    <clipPath id="clip-path">
      <rect id="Rectángulo_62" data-name="Rectángulo 62" width="30" height="30" transform="translate(0 0)" fill="#adaeb1" stroke="#707070" stroke-width="1"/>
    </clipPath>
  </defs>
  <g id="Enmascarar_grupo_12" data-name="Enmascarar grupo 12" clip-path="url(#clip-path)">
    <g id="Grupo_102" data-name="Grupo 102" transform="translate(3.141 3.452)">
      <path id="Trazado_63" data-name="Trazado 63" d="M41.453,202.517c-2.05,0-4.1,0-6.149,0a3.485,3.485,0,0,1-3.483-2.774,3.022,3.022,0,0,1-.072-.626q-.008-3.15,0-6.3a1.063,1.063,0,0,1,.909-1.081,1.048,1.048,0,0,1,1.177.7,1.779,1.779,0,0,1,.073.546c.005,1.957.027,3.913-.007,5.869a1.432,1.432,0,0,0,1.526,1.515q6.047-.036,12.1,0a1.425,1.425,0,0,0,1.507-1.508c-.032-1.981-.011-3.964-.009-5.945a1.1,1.1,0,0,1,.82-1.159,1.073,1.073,0,0,1,1.341,1.057c.008,1.029,0,2.058,0,3.087s0,2.041,0,3.061a3.483,3.483,0,0,1-3.552,3.559c-2.058.008-4.116,0-6.174,0" transform="translate(-29.599 -178.761)" fill="#adaeb1"/>
      <path id="Trazado_64" data-name="Trazado 64" d="M11.858,2.542,10.462,3.8q-4.3,3.866-8.594,7.732A1.082,1.082,0,0,1,.107,11.24a1.069,1.069,0,0,1,.3-1.3Q2.034,8.471,3.663,7.01L11.034.378a1.1,1.1,0,0,1,1.659,0q5.275,4.746,10.55,9.491a1.223,1.223,0,0,1,.465.756,1.072,1.072,0,0,1-.569,1.118,1.058,1.058,0,0,1-1.241-.179Q20.382,10.2,18.871,8.84L12.065,2.713c-.062-.055-.128-.106-.207-.171" transform="translate(0 0)" fill="#adaeb1"/>
    </g>
  </g>
</svg>
