<svg id="icono_TV" xmlns="http://www.w3.org/2000/svg" xmlns:xlink="http://www.w3.org/1999/xlink" width="25" height="25" viewBox="0 0 25 25">
  <defs>
    <clipPath id="clip-path">
      <rect id="Rectángulo_202" data-name="Rectángulo 202" width="25" height="25" fill="#1a1a1a" stroke="#707070" stroke-width="1"/>
    </clipPath>
  </defs>
  <g id="Enmascarar_grupo_68" data-name="Enmascarar grupo 68" clip-path="url(#clip-path)">
    <g id="Grupo_435" data-name="Grupo 435" transform="translate(-5975.602 -948.699)">
      <path id="Trazado_206" data-name="Trazado 206" d="M22.2.569V12.192a.9.9,0,0,1-.976.578c-.954-.021-1.908-.006-2.862-.006H.889A.772.772,0,0,1,0,11.877Q0,6.38,0,.884a1.279,1.279,0,0,1,.025-.3A.77.77,0,0,1,.88.007Q11.039.007,21.2,0A.951.951,0,0,1,22.2.569" transform="translate(5977 953)" fill="#1c1e28"/>
      <path id="Trazado_207" data-name="Trazado 207" d="M15.22,28.536V27.53h3.485v.994c.1,0,.175.011.252.011.744,0,1.488,0,2.232,0a.659.659,0,1,1-.006,1.307H12.711a.658.658,0,0,1-.695-.527.637.637,0,0,1,.421-.739,1.021,1.021,0,0,1,.319-.039c.73,0,1.46,0,2.189,0h.275" transform="translate(5971.137 939.554)" fill="#1c1e28"/>
    </g>
  </g>
</svg>
