<svg id="icono_trios" xmlns="http://www.w3.org/2000/svg" xmlns:xlink="http://www.w3.org/1999/xlink" width="25" height="25" viewBox="0 0 25 25">
  <defs>
    <clipPath id="clip-path">
      <rect id="Rectángulo_204" data-name="Rectángulo 204" width="25" height="25" fill="#1a1a1a" stroke="#707070" stroke-width="1"/>
    </clipPath>
  </defs>
  <g id="Enmascarar_grupo_70" data-name="Enmascarar grupo 70" clip-path="url(#clip-path)">
    <g id="Grupo_439" data-name="Grupo 439" transform="translate(-1057.56 -1122.073)">
      <path id="Trazado_227" data-name="Trazado 227" d="M12.312,17.09a19.87,19.87,0,0,1-6.649-1.127.913.913,0,0,1-.7-.966c-.006-.681.005-1.361,0-2.043a3.433,3.433,0,0,1,1.557-2.921,8.67,8.67,0,0,1,3.2-1.375.461.461,0,0,1,.294.056,4.464,4.464,0,0,0,4.425.016.545.545,0,0,1,.347-.068,8.659,8.659,0,0,1,3.26,1.441A3.449,3.449,0,0,1,19.5,13.073c-.018.614,0,1.227,0,1.842a.949.949,0,0,1-.758,1.07,19.646,19.646,0,0,1-6.429,1.106" transform="translate(1057.831 1125.74)" fill="#1c1e28"/>
      <path id="Trazado_228" data-name="Trazado 228" d="M12.849,7.134a3.567,3.567,0,1,1,3.572-3.559,3.568,3.568,0,0,1-3.572,3.559" transform="translate(1057.207 1126.988)" fill="#1c1e28"/>
      <path id="Trazado_229" data-name="Trazado 229" d="M5.391,3.665a2.36,2.36,0,0,1,.016,4.719,2.36,2.36,0,0,1-.016-4.719" transform="translate(1058.108 1126.459)" fill="#1c1e28"/>
      <path id="Trazado_230" data-name="Trazado 230" d="M20.708,3.665a2.36,2.36,0,1,1-2.344,2.367,2.357,2.357,0,0,1,2.344-2.367" transform="translate(1055.897 1126.459)" fill="#1c1e28"/>
      <path id="Trazado_231" data-name="Trazado 231" d="M4.388,10.179a4.075,4.075,0,0,0-.94,1.853A7.111,7.111,0,0,0,3.33,13.2c-.02.659-.005,1.319-.005,2.044-.543-.1-1.051-.178-1.548-.3-.465-.111-.918-.266-1.376-.4a.511.511,0,0,1-.4-.556c.01-.421.018-.844,0-1.265a2.374,2.374,0,0,1,1.134-2.157,5.994,5.994,0,0,1,1.941-.832.384.384,0,0,1,.222,0c.363.143.72.3,1.089.453" transform="translate(1058.547 1125.587)" fill="#1c1e28"/>
      <path id="Trazado_232" data-name="Trazado 232" d="M21.783,10.179c.37-.154.71-.3,1.056-.437a.383.383,0,0,1,.219-.015,5.5,5.5,0,0,1,2.177.988,2.3,2.3,0,0,1,.933,1.941c-.013.45-.005.9,0,1.35a.459.459,0,0,1-.281.489,11.9,11.9,0,0,1-2.949.709c-.016,0-.035-.012-.089-.033v-.294c0-.709.011-1.418-.015-2.127a4.176,4.176,0,0,0-1.049-2.571" transform="translate(1055.404 1125.586)" fill="#1c1e28"/>
    </g>
  </g>
</svg>
