<svg id="icono_habitación" xmlns="http://www.w3.org/2000/svg" xmlns:xlink="http://www.w3.org/1999/xlink" width="25" height="25" viewBox="0 0 25 25">
  <defs>
    <clipPath id="clip-path">
      <rect id="Rectángulo_150" data-name="Rectángulo 150" width="25" height="25" fill="#fff" stroke="#707070" stroke-width="1"/>
    </clipPath>
  </defs>
  <g id="Enmascarar_grupo_52" data-name="Enmascarar grupo 52" clip-path="url(#clip-path)">
    <g id="Grupo_469" data-name="Grupo 469">
      <path id="Trazado_269" data-name="Trazado 269" d="M10.56,11.9H20.805c.324,0,.347-.023.347-.342V6.574c0-.329-.018-.348-.339-.348H.347c-.329,0-.347.018-.347.34v4.959c0,.369.007.369.385.369H10.56" transform="translate(2 5.636)" fill="#1c1e28"/>
      <path id="Trazado_270" data-name="Trazado 270" d="M1.834,5.543h.935V4.434a1.569,1.569,0,0,1,1.47-1.664,1.365,1.365,0,0,1,.2,0H8.02a2.028,2.028,0,0,1,.4.028A1.566,1.566,0,0,1,9.678,4.357c.007.4,0,.792,0,1.2h.951c0-.416-.007-.819,0-1.223a1.557,1.557,0,0,1,1.55-1.563h.034c1.247-.006,2.495,0,3.744,0a1.518,1.518,0,0,1,.9.278A1.567,1.567,0,0,1,17.539,4.4V5.562h.935V1.128A1,1,0,0,0,17.62.009a1.007,1.007,0,0,0-.272,0H2.961A1,1,0,0,0,1.834,1.15V5.543Z" transform="translate(2.422 3.999)" fill="#1c1e28"/>
      <path id="Trazado_271" data-name="Trazado 271" d="M19.751,6.283a1.206,1.206,0,0,0-.329-1.143,1.169,1.169,0,0,0-.829-.246H2.129c-.086,0-.171,0-.257.006a.944.944,0,0,0-.687.351A1.281,1.281,0,0,0,.965,6.279Z" transform="translate(2.217 5.131)" fill="#1c1e28"/>
      <path id="Trazado_272" data-name="Trazado 272" d="M12.191,3.387H10.367c-.177,0-.259.069-.256.246v.888c0,.19.08.267.266.267h3.571c.185,0,.272-.074.268-.265,0-.288-.007-.576,0-.862,0-.2-.079-.277-.278-.275-.585.007-1.169,0-1.754,0" transform="translate(4.34 4.783)" fill="#1c1e28"/>
      <path id="Trazado_273" data-name="Trazado 273" d="M5.791,3.387H3.99c-.188,0-.272.07-.268.261.006.3,0,.592,0,.888,0,.179.08.255.255.255h3.6c.192,0,.261-.094.257-.277-.006-.281-.009-.562,0-.841.007-.213-.08-.289-.291-.287-.584.009-1.169,0-1.754,0" transform="translate(2.861 4.783)" fill="#1c1e28"/>
      <path id="Trazado_274" data-name="Trazado 274" d="M14.757,13.553h0a.952.952,0,0,1-.952-.952V11.073h1.9V12.6a.952.952,0,0,1-.952.952" transform="translate(5.195 6.758)" fill="#1c1e28"/>
      <path id="Trazado_275" data-name="Trazado 275" d="M2.775,13.633h0a.952.952,0,0,1-.952-.952V11.153h1.9v1.528a.952.952,0,0,1-.952.952" transform="translate(2.422 6.776)" fill="#1c1e28"/>
    </g>
  </g>
</svg>
