<svg id="icono_comentario" xmlns="http://www.w3.org/2000/svg" xmlns:xlink="http://www.w3.org/1999/xlink" width="20" height="20" viewBox="0 0 20 20">
  <defs>
    <clipPath id="clip-path">
      <rect id="Rectángulo_51" data-name="Rectángulo 51" width="20" height="20" transform="translate(45.158)" fill="#fff" stroke="#707070" stroke-width="1"/>
    </clipPath>
  </defs>
  <g id="Enmascarar_grupo_11" data-name="Enmascarar grupo 11" transform="translate(-45.158)" clip-path="url(#clip-path)">
    <path id="Trazado_247" data-name="Trazado 247" d="M15.655,2.092a2.138,2.138,0,0,0-.047-.455A2.06,2.06,0,0,0,13.574,0c-1.279,0-2.558,0-3.837,0Q5.914,0,2.092,0A2.067,2.067,0,0,0,.079,1.51c-.031.107-.053.216-.079.324v8.258a.189.189,0,0,1,.02.041,2.07,2.07,0,0,0,2.218,1.784H7.544c.422,0,.6.182.6.607,0,.28,0,.561,0,.841a1.183,1.183,0,0,0,.195.68,1.148,1.148,0,0,0,1.77.168q1.177-1.092,2.347-2.191a.351.351,0,0,1,.27-.106c.285.007.571.005.856,0A2.066,2.066,0,0,0,15.656,9.83q0-3.869,0-7.737M14.585,9.744a1.006,1.006,0,0,1-1.1,1.1c-.347,0-.693,0-1.04,0a.688.688,0,0,0-.508.2q-1.248,1.173-2.505,2.335a.725.725,0,0,1-.162.087.817.817,0,0,1-.046-.181c-.007-.331,0-.663-.013-.994a1.548,1.548,0,0,0-1.449-1.438c-.346-.017-.693-.01-1.039-.01q-2.293,0-4.587,0a1,1,0,0,1-1.049-.851,1.3,1.3,0,0,1-.012-.213q0-3.815,0-7.631A1,1,0,0,1,2.154,1.073H13.484a1.01,1.01,0,0,1,1.1,1.1q0,3.785,0,7.569" transform="translate(47.158 3)"/>
  </g>
</svg>
