<svg id="icono_gay" xmlns="http://www.w3.org/2000/svg" xmlns:xlink="http://www.w3.org/1999/xlink" width="25" height="25" viewBox="0 0 25 25">
  <defs>
    <clipPath id="clip-path">
      <rect id="Rectángulo_202" data-name="Rectángulo 202" width="25" height="25" fill="#1a1a1a" stroke="#707070" stroke-width="1"/>
    </clipPath>
  </defs>
  <g id="Enmascarar_grupo_68" data-name="Enmascarar grupo 68" clip-path="url(#clip-path)">
    <g id="Grupo_437" data-name="Grupo 437" transform="translate(-960.905 -1062.588)">
      <path id="Trazado_216" data-name="Trazado 216" d="M21.521,7.956l-1.255.111L20.09,6,17.857,8.236a6.193,6.193,0,0,1,1,1.841,6.13,6.13,0,0,1-11.37,4.539.189.189,0,0,0-.255-.126A6.126,6.126,0,1,1,5.447,2.377,6,6,0,0,1,9.816,3.571l.153.112,2.249-2.249-2.1-.18L10.216,0l4.041.334.336,4.041-1.256.1-.174-2.061L10.951,4.632,11.8,6.045a6.157,6.157,0,0,1,5.086,1.217l2.247-2.243-2.092-.178.1-1.255,4.037.333c.043.5.086.994.126,1.487.06.726.117,1.452.178,2.178a.642.642,0,0,0,.033.12ZM9,11.41a4.1,4.1,0,0,0,.59,2.83,3.966,3.966,0,0,0,2.29,1.74A4.1,4.1,0,0,0,16.094,9.3a3.96,3.96,0,0,0-2.887-1.346A4.106,4.106,0,0,0,10.2,9.1,4.114,4.114,0,0,0,2.58,6.4a4.09,4.09,0,0,0,.693,5.015A3.989,3.989,0,0,0,5.8,12.556,4.111,4.111,0,0,0,9,11.41" transform="translate(962.645 1066)" fill="#1c1e28"/>
      <path id="Trazado_217" data-name="Trazado 217" d="M41.934,64.987a2.846,2.846,0,1,1-2.859-2.832,2.852,2.852,0,0,1,2.859,2.832" transform="translate(929.685 1009.475)" fill="#1c1e28"/>
      <path id="Trazado_218" data-name="Trazado 218" d="M115.541,101.706a2.841,2.841,0,1,1-2.849,2.835,2.837,2.837,0,0,1,2.849-2.835" transform="translate(860.16 973.507)" fill="#1c1e28"/>
    </g>
  </g>
</svg>
