<svg id="icono_canales-adultos" xmlns="http://www.w3.org/2000/svg" xmlns:xlink="http://www.w3.org/1999/xlink" width="25" height="25" viewBox="0 0 25 25">
  <defs>
    <clipPath id="clip-path">
      <rect id="Rectángulo_206" data-name="Rectángulo 206" width="25" height="25" fill="#1a1a1a" stroke="#707070" stroke-width="1"/>
    </clipPath>
  </defs>
  <g id="Enmascarar_grupo_72" data-name="Enmascarar grupo 72" clip-path="url(#clip-path)">
    <g id="Grupo_440" data-name="Grupo 440" transform="translate(-1122.264 -1104.368)">
      <path id="Trazado_235" data-name="Trazado 235" d="M10.546,0c.448.064.9.121,1.344.194.235.038.466.1.7.158v1.82a8.148,8.148,0,0,0-6.65.637A8.055,8.055,0,0,0,2.4,6.763,8.213,8.213,0,0,0,13.878,17.18,8.257,8.257,0,0,0,17.76,7.338h1.82c.072.351.16.713.219,1.08a9.959,9.959,0,0,1-19.178,5,9.473,9.473,0,0,1-.587-2.686A1.723,1.723,0,0,0,0,10.546V9.378c.016-.14.032-.28.048-.42A9.84,9.84,0,0,1,2.55,3.32,9.77,9.77,0,0,1,8.246.155C8.621.089,9,.051,9.378,0Z" transform="translate(1124.802 1106.908)" fill="#1c1e28"/>
      <path id="Trazado_236" data-name="Trazado 236" d="M27.542,21.528a1.958,1.958,0,0,1-.79-.834,1.577,1.577,0,0,1,.913-2.133,3.618,3.618,0,0,1,2.657-.024,1.6,1.6,0,0,1,1.131,1.4,1.543,1.543,0,0,1-.751,1.537.217.217,0,0,0-.038.033,5.163,5.163,0,0,1,.68.54,1.764,1.764,0,0,1-.511,2.8,3.924,3.924,0,0,1-2.192.374,3.376,3.376,0,0,1-1.328-.335,1.716,1.716,0,0,1-1.05-1.6,1.817,1.817,0,0,1,1.069-1.657c.061-.033.126-.061.208-.1M29,24.006c.194-.025.343-.035.488-.065a.814.814,0,0,0,.707-.8.789.789,0,0,0-.621-.847,1.857,1.857,0,0,0-1.127.02.836.836,0,0,0-.01,1.576,4.4,4.4,0,0,0,.563.118m.026-3.021a3.763,3.763,0,0,0,.484-.082.674.674,0,0,0,.508-.678.7.7,0,0,0-.477-.706,1.481,1.481,0,0,0-.936-.024.7.7,0,0,0-.54.735.672.672,0,0,0,.563.692c.118.031.242.04.4.064" transform="translate(1107.849 1095.1)" fill="#1c1e28"/>
      <path id="Trazado_237" data-name="Trazado 237" d="M15.537,19.914H14.3V18.539h2.943V25.3H15.537Z" transform="translate(1115.572 1094.943)" fill="#1c1e28"/>
      <path id="Trazado_238" data-name="Trazado 238" d="M41.343,5.464H39.45V4.1h1.879V2.2H42.7V4.084h1.9V5.462h-1.89v1.9H41.343Z" transform="translate(1099.339 1105.491)" fill="#1c1e28"/>
    </g>
  </g>
</svg>
