<svg id="icono_dinero" xmlns="http://www.w3.org/2000/svg" xmlns:xlink="http://www.w3.org/1999/xlink" width="25" height="25" viewBox="0 0 25 25">
  <defs>
    <clipPath id="clip-path">
      <rect id="Rectángulo_206" data-name="Rectángulo 206" width="25" height="25" fill="#1a1a1a" stroke="#707070" stroke-width="1"/>
    </clipPath>
  </defs>
  <g id="Enmascarar_grupo_72" data-name="Enmascarar grupo 72" clip-path="url(#clip-path)">
    <g id="Grupo_468" data-name="Grupo 468" transform="translate(-1286.644 -1106.127)">
      <path id="Trazado_254" data-name="Trazado 254" d="M32.237,3.614c-.053-.09-.084-.147-.119-.2L30.2.3c-.214-.346-.392-.388-.739-.173L24.087,3.455c-.06.037-.118.079-.234.158.5,0,.94.007,1.376,0a.749.749,0,0,0,.353-.1c.785-.477,1.564-.964,2.345-1.447a.567.567,0,0,1,.82.1,1.031,1.031,0,0,0,1.184.279A.562.562,0,0,1,30.7,2.7c.163.259.317.524.488.778a.3.3,0,0,0,.2.127c.268.015.538.006.851.006" transform="translate(1274.773 1108.961)" fill="#1c1e28"/>
      <path id="Trazado_255" data-name="Trazado 255" d="M7.623,35.88c.065.111.1.181.146.249q.878,1.421,1.755,2.84c.222.36.4.4.754.18l5.068-3.135c.045-.028.084-.065.173-.135-.479,0-.9-.009-1.313.005A.908.908,0,0,0,13.79,36c-.672.4-1.336.822-2,1.231A.556.556,0,0,1,11,37.144a1.045,1.045,0,0,0-1.22-.29.551.551,0,0,1-.732-.249c-.13-.2-.247-.41-.381-.607a.26.26,0,0,0-.17-.112c-.275-.012-.551-.005-.873-.005" transform="translate(1283.8 1089.008)" fill="#1c1e28"/>
      <path id="Trazado_256" data-name="Trazado 256" d="M30.51,6.977H34.1a2.749,2.749,0,0,1-.147-.251.257.257,0,0,0-.366-.156,1.5,1.5,0,0,1-.509.033,1.738,1.738,0,0,1-1.118-.525l-1.455.9" transform="translate(1271.071 1105.58)" fill="#1c1e28"/>
      <path id="Trazado_257" data-name="Trazado 257" d="M14.841,35.957c0-.013-.007-.026-.011-.039H11.785c.064.189.133.258.344.206a1.687,1.687,0,0,1,1.526.37.256.256,0,0,0,.218.052c.328-.186.647-.391.968-.59" transform="translate(1281.485 1088.985)" fill="#1c1e28"/>
      <path id="Trazado_258" data-name="Trazado 258" d="M.634,21.976c-.176.111-.326.193-.463.293a.345.345,0,0,0-.13.455c.169.318.367.621.553.929l.04-.016Z" transform="translate(1288.039 1096.739)" fill="#1c1e28"/>
      <path id="Trazado_259" data-name="Trazado 259" d="M49.208,19.8c.526-.19.456-.559,0-1.082Z" transform="translate(1260.673 1098.552)" fill="#1c1e28"/>
      <path id="Trazado_260" data-name="Trazado 260" d="M12.96,9.76h9.282c.465,0,.58.116.58.584v9.71c0,.468-.115.583-.582.583H3.653c-.47,0-.576-.108-.576-.585q0-4.855,0-9.71c0-.473.109-.582.578-.582h9.3m-.024.841H5.962c-.435,0-.586.125-.686.544a1.011,1.011,0,0,1-.822.816.593.593,0,0,0-.547.692q0,2.546,0,5.091a.588.588,0,0,0,.547.689,1.03,1.03,0,0,1,.828.842.576.576,0,0,0,.658.528H19.954a.586.586,0,0,0,.668-.548,1.006,1.006,0,0,1,.8-.814c.45-.112.562-.252.562-.717q0-2.523,0-5.046c0-.473-.115-.607-.584-.724a.99.99,0,0,1-.767-.764c-.12-.478-.249-.587-.744-.587H12.935" transform="translate(1286.328 1103.533)" fill="#1c1e28"/>
      <path id="Trazado_261" data-name="Trazado 261" d="M32.237,3.614c-.314,0-.583.009-.851-.006a.3.3,0,0,1-.2-.127c-.171-.254-.325-.519-.488-.778a.562.562,0,0,0-.764-.265,1.031,1.031,0,0,1-1.184-.279.567.567,0,0,0-.82-.1c-.782.482-1.56.97-2.345,1.447a.749.749,0,0,1-.353.1c-.436.012-.873,0-1.376,0,.117-.079.174-.121.234-.158L29.459.131c.348-.215.525-.173.739.173l1.92,3.107c.034.055.066.113.119.2" transform="translate(1274.773 1108.961)" fill="#1c1e28"/>
      <path id="Trazado_262" data-name="Trazado 262" d="M7.623,35.88c.322,0,.6-.007.873.005a.26.26,0,0,1,.17.112c.134.2.251.407.381.607a.551.551,0,0,0,.732.249,1.045,1.045,0,0,1,1.22.29.556.556,0,0,0,.787.088c.668-.409,1.332-.829,2-1.231a.908.908,0,0,1,.417-.116c.416-.015.834-.005,1.313-.005-.089.07-.128.107-.173.135l-5.068,3.135c-.359.221-.531.18-.754-.18q-.878-1.419-1.755-2.84c-.042-.068-.081-.138-.146-.249" transform="translate(1283.8 1089.008)" fill="#1c1e28"/>
      <path id="Trazado_263" data-name="Trazado 263" d="M30.51,6.977l1.455-.9a1.738,1.738,0,0,0,1.118.525,1.5,1.5,0,0,0,.509-.033.257.257,0,0,1,.366.156,2.749,2.749,0,0,0,.147.251Z" transform="translate(1271.071 1105.58)" fill="#1c1e28"/>
      <path id="Trazado_264" data-name="Trazado 264" d="M14.841,35.957c-.321.2-.64.4-.968.59a.256.256,0,0,1-.218-.052,1.687,1.687,0,0,0-1.526-.37c-.211.051-.28-.018-.344-.206H14.83c0,.013.008.026.011.039" transform="translate(1281.485 1088.985)" fill="#1c1e28"/>
      <path id="Trazado_265" data-name="Trazado 265" d="M.634,21.976v1.661l-.04.016c-.186-.309-.384-.611-.553-.929a.345.345,0,0,1,.13-.455c.137-.1.287-.183.463-.293" transform="translate(1288.039 1096.739)" fill="#1c1e28"/>
      <path id="Trazado_266" data-name="Trazado 266" d="M49.208,19.8V18.716c.456.523.526.892,0,1.082" transform="translate(1260.673 1098.552)" fill="#1c1e28"/>
      <path id="Trazado_267" data-name="Trazado 267" d="M23.179,19.679a1.778,1.778,0,0,0-1.3,1.249c-.014.045-.089.076-.142.1a.277.277,0,0,1-.111,0H7.918a1.8,1.8,0,0,0-1.36-1.359v-.229c0-1.532,0-3.064,0-4.6,0-.162.028-.245.2-.3a1.732,1.732,0,0,0,1.157-1.281h.248q6.713,0,13.426,0a.3.3,0,0,1,.344.241,1.65,1.65,0,0,0,1.1,1.061c.106.035.163.067.162.193q-.007,2.432-.006,4.865a.361.361,0,0,1-.015.059m-5.317-2.531a2.985,2.985,0,1,0-3,2.985,2.971,2.971,0,0,0,3-2.985m-7.944,0a.719.719,0,1,0-.712.712.711.711,0,0,0,.712-.712m10.642.712a.714.714,0,0,0,.72-.705.726.726,0,0,0-.718-.735.734.734,0,0,0-.724.733.723.723,0,0,0,.722.707" transform="translate(1284.394 1101.586)" fill="#1c1e28"/>
      <path id="Trazado_268" data-name="Trazado 268" d="M24.891,18.106a.348.348,0,0,1-.261.381.356.356,0,0,1-.426-.2.637.637,0,0,0-.811-.324.382.382,0,0,0-.308.366c0,.2.136.277.29.323.206.063.426.086.627.162a2.088,2.088,0,0,1,.612.309,1.01,1.01,0,0,1-.373,1.752c-.15.056-.273.091-.292.3-.017.185-.178.268-.366.252a.3.3,0,0,1-.308-.3c0-.156-.086-.2-.206-.238a1.209,1.209,0,0,1-.768-.761.37.37,0,0,1,.2-.521c.194-.072.367.024.467.26a.806.806,0,0,0,1.2.241.293.293,0,0,0-.07-.475,2.415,2.415,0,0,0-.5-.182c-.178-.055-.367-.08-.538-.15a.987.987,0,0,1-.692-.926,1.035,1.035,0,0,1,.656-1.027c.142-.067.248-.111.256-.3a.3.3,0,0,1,.332-.273.315.315,0,0,1,.347.285c.014.166.095.222.231.275a1.18,1.18,0,0,1,.645.622,1.2,1.2,0,0,1,.055.159" transform="translate(1275.657 1099.638)" fill="#1c1e28"/>
    </g>
  </g>
</svg>
