<svg id="icono_deportivo" xmlns="http://www.w3.org/2000/svg" xmlns:xlink="http://www.w3.org/1999/xlink" width="25" height="25" viewBox="0 0 25 25">
  <defs>
    <clipPath id="clip-path">
      <rect id="Rectángulo_205" data-name="Rectángulo 205" width="25" height="25" fill="#1a1a1a" stroke="#707070" stroke-width="1"/>
    </clipPath>
  </defs>
  <g id="Enmascarar_grupo_71" data-name="Enmascarar grupo 71" clip-path="url(#clip-path)">
    <path id="Trazado_233" data-name="Trazado 233" d="M11.063,20.893H9.838a1.279,1.279,0,0,0-.157-.033,9.826,9.826,0,0,1-4.136-1.194,10.311,10.311,0,0,1-5.381-7.4c-.075-.4-.11-.8-.164-1.206V9.831c.044-.356.075-.713.135-1.067A10.219,10.219,0,0,1,3.362,2.777,10.192,10.192,0,0,1,11.5.052,10.019,10.019,0,0,1,17.341,2.6,10.248,10.248,0,0,1,20.889,10a9.876,9.876,0,0,1-1.213,5.34,10.3,10.3,0,0,1-7.4,5.385c-.4.077-.806.111-1.209.164M18.541,5.037a.918.918,0,0,0-.071-.135,9.729,9.729,0,0,0-3.9-3.286.347.347,0,0,0-.245-.007c-1.118.44-2.233.89-3.35,1.331a.214.214,0,0,0-.159.238c.005,1.061,0,2.122.009,3.182a.363.363,0,0,0,.116.253q1.593,1.29,3.2,2.561a.314.314,0,0,0,.25.044q1.645-.536,3.283-1.094a.3.3,0,0,0,.169-.185c.146-.573.276-1.149.411-1.724.091-.384.183-.766.282-1.179m-8.46-.259c0-.537,0-1.075,0-1.612a.188.188,0,0,0-.135-.213C8.816,2.509,7.688,2.06,6.554,1.618a.347.347,0,0,0-.245.008A9.69,9.69,0,0,0,2.444,4.892a.338.338,0,0,0-.053.239c.213.933.438,1.864.651,2.8a.262.262,0,0,0,.205.214c1.083.357,2.165.72,3.25,1.071a.334.334,0,0,0,.267-.048Q8.366,7.9,9.952,6.619a.4.4,0,0,0,.123-.27c.012-.524.005-1.048.005-1.571m10.11,6.644c-.052-.075-.083-.134-.126-.184-.639-.767-1.28-1.534-1.917-2.3a.21.21,0,0,0-.272-.083c-1.073.364-2.149.717-3.222,1.082a.335.335,0,0,0-.189.2q-.488,1.9-.952,3.813a.348.348,0,0,0,.048.254q.754,1.016,1.526,2.016a.271.271,0,0,0,.214.094q1.571-.236,3.14-.5a.417.417,0,0,0,.249-.165,8.777,8.777,0,0,0,1.127-2.5c.152-.569.251-1.152.374-1.727m-14.481,4.9a.841.841,0,0,0,.134-.119c.5-.668,1.008-1.335,1.5-2.008a.351.351,0,0,0,.046-.255q-.466-1.909-.951-3.815a.317.317,0,0,0-.172-.188c-1.086-.369-2.176-.727-3.263-1.1a.172.172,0,0,0-.225.058c-.651.786-1.307,1.567-1.955,2.354a.327.327,0,0,0-.065.217,9.7,9.7,0,0,0,1.4,4.11.483.483,0,0,0,.381.249c.579.082,1.155.179,1.733.27l1.429.222m.655.433c.675,1.056,1.343,2.1,2.016,3.149A.28.28,0,0,0,8.545,20a9.553,9.553,0,0,0,4.106-.062.292.292,0,0,0,.171-.122q.845-1.464,1.677-2.938a.236.236,0,0,0-.015-.21q-.756-1.014-1.529-2.016a.312.312,0,0,0-.217-.107q-2.286-.01-4.571,0a.269.269,0,0,0-.193.075c-.54.708-1.071,1.421-1.61,2.138" transform="translate(2.049 2.054)" fill="#1c1e28"/>
  </g>
</svg>
