<svg id="icono_estrella" xmlns="http://www.w3.org/2000/svg" xmlns:xlink="http://www.w3.org/1999/xlink" width="20" height="20" viewBox="0 0 20 20">
  <defs>
    <clipPath id="clip-path">
      <rect id="Rect치ngulo_148" data-name="Rect치ngulo 148" width="20" height="20" fill="#fff" stroke="#707070" stroke-width="1"/>
    </clipPath>
    <clipPath id="clip-path-2">
      <rect id="Rect치ngulo_198" data-name="Rect치ngulo 198" width="16.335" height="15.697" fill="none"/>
    </clipPath>
  </defs>
  <g id="Enmascarar_grupo_50" data-name="Enmascarar grupo 50" clip-path="url(#clip-path)">
    <g id="Grupo_430" data-name="Grupo 430" transform="translate(1.832 2.152)">
      <g id="Grupo_430-2" data-name="Grupo 430" transform="translate(0 0)" clip-path="url(#clip-path-2)">
        <path id="Trazado_205" data-name="Trazado 205" d="M15,4.853l-1.332-.194c-.775-.114-1.575-.232-2.364-.342-.066-.009-.081-.014-.119-.094-.344-.707-.7-1.424-1.04-2.117q-.3-.608-.6-1.217A1.51,1.51,0,0,0,8.173,0H8.147a1.5,1.5,0,0,0-1.34.874c-.515,1.041-1.1,2.22-1.666,3.38-.027.054-.029.054-.069.061q-.834.118-1.666.24c-.669.1-1.353.2-2.029.292a1.484,1.484,0,0,0-1.3,1.029,1.474,1.474,0,0,0,.429,1.6L1.887,8.817q.642.628,1.288,1.254c.047.046.05.052.038.115-.249,1.39-.445,2.539-.618,3.615a1.982,1.982,0,0,0,.021.8,1.451,1.451,0,0,0,1.418,1.08,1.606,1.606,0,0,0,.738-.183c1.085-.565,2.207-1.154,3.335-1.754a.144.144,0,0,1,.065-.023.132.132,0,0,1,.057.021c.492.266,1,.53,1.482.784l.416.218.409.216c.358.189.728.386,1.1.569a1.491,1.491,0,0,0,.667.168,1.519,1.519,0,0,0,1.462-1.76c-.2-1.2-.418-2.486-.644-3.766a.121.121,0,0,1,0-.048.106.106,0,0,1,.031-.039q.978-.949,1.953-1.9l.75-.732A1.506,1.506,0,0,0,15,4.853" transform="translate(0 0)" fill="#1c1e28"/>
      </g>
    </g>
  </g>
</svg>
