<svg id="icono_populares" xmlns="http://www.w3.org/2000/svg" xmlns:xlink="http://www.w3.org/1999/xlink" width="25" height="25" viewBox="0 0 25 25">
  <defs>
    <clipPath id="clip-path">
      <rect id="Rectángulo_95" data-name="Rectángulo 95" width="25" height="25" fill="#fff" stroke="#707070" stroke-width="1"/>
    </clipPath>
  </defs>
  <g id="Enmascarar_grupo_27" data-name="Enmascarar grupo 27" clip-path="url(#clip-path)">
    <g id="Grupo_239" data-name="Grupo 239" transform="translate(-144.097 -3924.096)">
      <path id="Trazado_93" data-name="Trazado 93" d="M15.9,7.5a2.2,2.2,0,1,1-2.2-2.2,2.205,2.205,0,0,1,2.2,2.2M15.9,13.55a9.758,9.758,0,0,1-1.026,4.029,6.732,6.732,0,0,1-6.024,3.585H7.965V16.314a3.1,3.1,0,0,0-3.086-3.086H.028v-.882A6.731,6.731,0,0,1,3.613,6.322,9.764,9.764,0,0,1,7.642,5.3,13.657,13.657,0,0,1,18.522,0a2.654,2.654,0,0,1,2.67,2.636v.009A13.675,13.675,0,0,1,15.9,13.55M1.866,11.464H3.861a30.26,30.26,0,0,1,2.3-4.2A7.943,7.943,0,0,0,4.4,7.9a4.866,4.866,0,0,0-2.538,3.565m12.063,3.567a30.3,30.3,0,0,1-4.2,2.3v1.995a4.866,4.866,0,0,0,3.565-2.538A7.943,7.943,0,0,0,13.929,15.031Zm5.5-12.41a.883.883,0,0,0-.882-.857c-4.55.13-7.627,1.874-10.6,6.016A26.441,26.441,0,0,0,5.77,11.546a4.851,4.851,0,0,1,3.88,3.88,26.441,26.441,0,0,0,3.766-2.179C17.556,10.273,19.3,7.2,19.429,2.621m-14,13.145a2.66,2.66,0,0,1,0,3.741c-.8.8-3.194,1.292-4.187,1.467L0,21.193l.218-1.24c.176-.993.668-3.387,1.467-4.187a2.711,2.711,0,0,1,3.742,0m-.99,1.871a.882.882,0,0,0-1.506-.624,6.464,6.464,0,0,0-.7,1.947,6.491,6.491,0,0,0,1.948-.7.877.877,0,0,0,.257-.622" transform="translate(146 3926)" fill="#1c1e28"/>
    </g>
  </g>
</svg>
