<svg id="icono_Bebidas" xmlns="http://www.w3.org/2000/svg" xmlns:xlink="http://www.w3.org/1999/xlink" width="25" height="25" viewBox="0 0 25 25">
  <defs>
    <clipPath id="clip-path">
      <rect id="Rectángulo_202" data-name="Rectángulo 202" width="25" height="25" fill="#1a1a1a" stroke="#707070" stroke-width="1"/>
    </clipPath>
  </defs>
  <g id="Enmascarar_grupo_68" data-name="Enmascarar grupo 68" clip-path="url(#clip-path)">
    <g id="Grupo_436" data-name="Grupo 436" transform="translate(-1169 -980)">
      <path id="Trazado_208" data-name="Trazado 208" d="M40.268,0a9.639,9.639,0,0,1,1.309.339A4.627,4.627,0,0,1,44.6,4.088a4.67,4.67,0,0,1-2,4.729,4.844,4.844,0,0,1-5.311.151c-.022-.014-.041-.032-.093-.074.2-.188.38-.373.579-.54a.249.249,0,0,1,.211.013,4.029,4.029,0,0,0,1.6.44,3.792,3.792,0,0,0,3.105-1.2,3.973,3.973,0,1,0-6.648-3.943c-.052.17-.119.232-.293.218-.2-.016-.411,0-.649,0,.026-.128.042-.24.072-.348A4.858,4.858,0,0,1,39.2.043c.067-.009.133-.028.2-.043Z" transform="translate(1147.317 981.935)" fill="#1c1e28"/>
      <path id="Trazado_209" data-name="Trazado 209" d="M10.869,33.254H3.512l.5-1.359H6.342v-.237q0-4.045,0-8.09a.46.46,0,0,0-.152-.358C4.211,21.233,2.235,19.248.247,17.277a.7.7,0,0,1-.223-.725H.272q6.913,0,13.827,0a.565.565,0,0,1,.254.051,2.212,2.212,0,0,1-.039.476c-.008.044-.073.079-.112.118q-3,3-6,6a.5.5,0,0,0-.164.395q.008,4.024,0,8.049V31.9h.226c.647,0,1.293,0,1.94,0a.2.2,0,0,1,.224.151c.135.4.283.786.437,1.209" transform="translate(1173.02 969.811)" fill="#1c1e28"/>
      <path id="Trazado_210" data-name="Trazado 210" d="M58.056,19.15l-1.412-2.055a.944.944,0,0,1,.633-.463c.592-.147,1.175-.331,1.761-.5a3.306,3.306,0,0,1-.982,3.018" transform="translate(1131.53 970.119)" fill="#1c1e28"/>
      <path id="Trazado_211" data-name="Trazado 211" d="M57.429,7.185a14.78,14.78,0,0,1-2.566.6V5.312a3.328,3.328,0,0,1,2.566,1.873" transform="translate(1132.834 978.044)" fill="#1c1e28"/>
      <path id="Trazado_212" data-name="Trazado 212" d="M43.887,5.188v2.5a1.97,1.97,0,0,1-.392-.043c-.673-.216-1.342-.443-2.013-.667a.683.683,0,0,1-.089-.049,3.513,3.513,0,0,1,2.494-1.737" transform="translate(1142.701 978.135)" fill="#1c1e28"/>
      <path id="Trazado_213" data-name="Trazado 213" d="M48.7,22.743l1.283,1.868a3.334,3.334,0,0,1-3.148,0L48.7,22.743" transform="translate(1138.715 965.276)" fill="#1c1e28"/>
      <path id="Trazado_214" data-name="Trazado 214" d="M5.092,3.778,5.673,3.2,8.694,6.22c-.368,0-.742,0-1.115,0a.206.206,0,0,1-.119-.069Q6.272,4.961,5.092,3.778" transform="translate(1169.29 979.59)" fill="#1c1e28"/>
    </g>
  </g>
</svg>
