<svg id="icono_compartir" xmlns="http://www.w3.org/2000/svg" xmlns:xlink="http://www.w3.org/1999/xlink" width="20" height="20" viewBox="0 0 20 20">
  <defs>
    <clipPath id="clip-path">
      <rect id="Rectángulo_197" data-name="Rectángulo 197" width="20" height="20" transform="translate(0.38 0)" fill="#fff" stroke="#707070" stroke-width="1"/>
    </clipPath>
  </defs>
  <g id="Enmascarar_grupo_67" data-name="Enmascarar grupo 67" transform="translate(-0.38 0)" clip-path="url(#clip-path)">
    <path id="Trazado_204" data-name="Trazado 204" d="M12.037,0a7.173,7.173,0,0,1,.928.29,2.7,2.7,0,0,1-.5,5.045A2.65,2.65,0,0,1,9.789,4.57a.857.857,0,0,1-.073-.1c-.064.036-.107.059-.15.085q-2.1,1.261-4.2,2.52c-.109.065-.129.119-.087.236A2.5,2.5,0,0,1,5.351,8.78a.178.178,0,0,0,.112.243q1.975,1,3.945,2.013c.053.027.108.052.172.083a2.708,2.708,0,0,1,2.169-1.1,2.617,2.617,0,0,1,1.739.618,2.714,2.714,0,1,1-4.325,1.286L4.923,9.76a2.7,2.7,0,0,1-2.262,1.13A2.633,2.633,0,0,1,.8,10.108,2.717,2.717,0,0,1,.643,6.425a2.654,2.654,0,0,1,2.051-.958,2.687,2.687,0,0,1,2.061.922L9.213,3.711c-.047-.226-.107-.444-.137-.665A2.711,2.711,0,0,1,11.349.034c.049-.007.1-.022.145-.033Zm-.272.906a1.81,1.81,0,1,0,1.81,1.814A1.815,1.815,0,0,0,11.765.907M.9,8.179A1.81,1.81,0,1,0,2.715,6.369,1.815,1.815,0,0,0,.9,8.179m10.863,6.366a1.81,1.81,0,1,0-1.811-1.814,1.815,1.815,0,0,0,1.811,1.814" transform="translate(2.139 2.642)" fill="#fff"/>
  </g>
</svg>
