<svg id="icono_recientes" xmlns="http://www.w3.org/2000/svg" xmlns:xlink="http://www.w3.org/1999/xlink" width="25" height="25" viewBox="0 0 25 25">
  <defs>
    <clipPath id="clip-path">
      <rect id="Rectángulo_151" data-name="Rectángulo 151" width="25" height="25" fill="#fff" stroke="#707070" stroke-width="1"/>
    </clipPath>
  </defs>
  <g id="Enmascarar_grupo_53" data-name="Enmascarar grupo 53" clip-path="url(#clip-path)">
    <g id="Grupo_350" data-name="Grupo 350" transform="translate(-660.565 -3792.565)">
      <path id="Trazado_168" data-name="Trazado 168" d="M8.065,0A8.048,8.048,0,0,0,2.688,2.065V.672a.672.672,0,1,0-1.344,0V2.688A2.016,2.016,0,0,0,3.36,4.7H5.377a.672.672,0,0,0,0-1.344H3.36a.568.568,0,0,1-.067-.014A6.713,6.713,0,1,1,1.344,8.065.672.672,0,0,0,0,8.065,8.065,8.065,0,1,0,8.065,0" transform="translate(665 3797)" fill="#1a1a1a"/>
      <path id="Trazado_169" data-name="Trazado 169" d="M11.672,6A.672.672,0,0,0,11,6.672v3.36a.67.67,0,0,0,.2.475l2.016,2.016a.672.672,0,0,0,.95-.95L12.344,9.754V6.672A.672.672,0,0,0,11.672,6" transform="translate(661.393 3795.033)" fill="#1a1a1a"/>
    </g>
  </g>
</svg>
