<svg id="icono_carro" xmlns="http://www.w3.org/2000/svg" xmlns:xlink="http://www.w3.org/1999/xlink" width="25" height="25" viewBox="0 0 25 25">
  <defs>
    <clipPath id="clip-path">
      <rect id="Rectángulo_153" data-name="Rectángulo 153" width="25" height="25" fill="#fff" stroke="#707070" stroke-width="1"/>
    </clipPath>
  </defs>
  <g id="Enmascarar_grupo_55" data-name="Enmascarar grupo 55" clip-path="url(#clip-path)">
    <path id="Trazado_171" data-name="Trazado 171" d="M0,5.912c.034-.186.059-.374.1-.557a3.144,3.144,0,0,1,2.418-2.4c.488-.134,1-.177,1.487-.313a8.21,8.21,0,0,0,1.3-.485A23.067,23.067,0,0,1,10.279.394a14.061,14.061,0,0,1,7.212.155A2.5,2.5,0,0,0,18.87.628c.122-.03.253-.027.376-.057a.577.577,0,0,1,.7.256.525.525,0,0,1-.1.667c.3.313.626.6.89.931a3.684,3.684,0,0,1,.731,2.018c.062.681.125,1.362.2,2.042a1.325,1.325,0,0,1-1.277,1.538.215.215,0,0,0-.221.172,2.118,2.118,0,0,1-4,0,.217.217,0,0,0-.247-.164q-4.53.005-9.059,0a.218.218,0,0,0-.241.172,2.118,2.118,0,0,1-4-.01.2.2,0,0,0-.227-.161c-.508.007-1.016,0-1.524,0-.426,0-.592-.122-.69-.531C.1,7.212.057,6.921,0,6.632v-.72M1.159,6.937c.41,0,.8-.009,1.185,0a.249.249,0,0,0,.284-.2,2.119,2.119,0,0,1,3.966-.017.276.276,0,0,0,.315.218q4.466-.007,8.933,0a.31.31,0,0,0,.348-.234,2.025,2.025,0,0,1,1.82-1.337,2.079,2.079,0,0,1,2.154,1.406c.036.1.076.209.2.152a.53.53,0,0,0,.209-.218c.029-.052,0-.138,0-.208-.067-.688-.133-1.376-.2-2.063A2.556,2.556,0,0,0,18.98,2.319a9.606,9.606,0,0,0-1.256-.553,12.412,12.412,0,0,0-6.216-.492A18.64,18.64,0,0,0,6.362,2.885,10.909,10.909,0,0,1,3.141,3.928a2.321,2.321,0,0,0-1.611.88,2.685,2.685,0,0,0-.37,2.129M4.617,6.45A1.038,1.038,0,0,0,3.575,7.479a1.04,1.04,0,1,0,2.079,0A1.035,1.035,0,0,0,4.617,6.45M19.2,7.481a1.041,1.041,0,0,0-2.082,0,1.041,1.041,0,1,0,2.082,0" transform="translate(1.664 7.691)" fill="#1a1a1a"/>
  </g>
</svg>
