<svg id="Icono_user" xmlns="http://www.w3.org/2000/svg" xmlns:xlink="http://www.w3.org/1999/xlink" width="20" height="20" viewBox="0 0 20 20">
  <defs>
    <clipPath id="clip-path">
      <rect id="Rectángulo_38" data-name="Rectángulo 38" width="20" height="20" transform="translate(0.38 0)" fill="#f7f7f7" stroke="#707070" stroke-width="1"/>
    </clipPath>
  </defs>
  <g id="Enmascarar_grupo_2" data-name="Enmascarar grupo 2" transform="translate(-0.38 0)" clip-path="url(#clip-path)">
    <g id="Grupo_379" data-name="Grupo 379" transform="translate(-1737.62 -615)">
      <path id="Trazado_172" data-name="Trazado 172" d="M10,8A4,4,0,1,0,6,4a4,4,0,0,0,4,4Zm0-6.667A2.667,2.667,0,1,1,7.333,4,2.667,2.667,0,0,1,10,1.333Z" transform="translate(1738 617)" fill="#f7f7f7"/>
      <path id="Trazado_173" data-name="Trazado 173" d="M9,14a6.007,6.007,0,0,0-6,6,.667.667,0,1,0,1.333,0,4.667,4.667,0,0,1,9.333,0A.667.667,0,0,0,15,20,6.007,6.007,0,0,0,9,14Z" transform="translate(1739 612.333)" fill="#f7f7f7"/>
    </g>
  </g>
</svg>
