<svg id="icono_fuego" xmlns="http://www.w3.org/2000/svg" xmlns:xlink="http://www.w3.org/1999/xlink" width="25" height="25" viewBox="0 0 25 25">
  <defs>
    <clipPath id="clip-path">
      <rect id="Rectángulo_152" data-name="Rectángulo 152" width="25" height="25" fill="#fff" stroke="#707070" stroke-width="1"/>
    </clipPath>
  </defs>
  <g id="Enmascarar_grupo_54" data-name="Enmascarar grupo 54" clip-path="url(#clip-path)">
    <path id="Trazado_170" data-name="Trazado 170" d="M10.22,0c.474.255.554.5.32.99a3.773,3.773,0,0,0,1.073,4.7c.361.3.766.546,1.147.823a7.821,7.821,0,0,1,2.98,4.073,6.04,6.04,0,0,1,.105,2.874,7.768,7.768,0,0,1-3.47,5.312,7.657,7.657,0,0,1-6.488,1.043,7.828,7.828,0,0,1-4.2-2.837A7.686,7.686,0,0,1,.032,12.827,6.681,6.681,0,0,1,1.094,8.377,2.047,2.047,0,0,1,2.481,7.4a.605.605,0,0,1,.762.718,7.059,7.059,0,0,0,.151,2.474,2.883,2.883,0,0,0,.305.694.654.654,0,0,0,.752.288.263.263,0,0,0,.144-.207,7.078,7.078,0,0,0-.091-1.033,18.725,18.725,0,0,1-.33-4.2A7.884,7.884,0,0,1,4.918,2.8,4.836,4.836,0,0,1,8.468.163C8.826.09,9.191.053,9.552,0ZM9.164,1.234c-.2.036-.4.062-.584.105a3.685,3.685,0,0,0-2.575,1.91,5.725,5.725,0,0,0-.611,2.276A16.838,16.838,0,0,0,5.6,9.747a11.489,11.489,0,0,1,.171,1.693,1.27,1.27,0,0,1-.859,1.238,1.913,1.913,0,0,1-2.323-.936,4.959,4.959,0,0,1-.536-2.11c-.01-.157-.019-.314-.028-.47a.573.573,0,0,0-.174.208,6.062,6.062,0,0,0-.336,4.815A6.688,6.688,0,0,0,4.04,17.62a6.384,6.384,0,0,0,5.544,1.1,6.624,6.624,0,0,0,5.091-5.4,4.766,4.766,0,0,0-.232-2.889,7.181,7.181,0,0,0-2.707-3.2,9.093,9.093,0,0,1-1.318-1.045A4.629,4.629,0,0,1,9,2.187c.035-.309.1-.614.163-.953" transform="translate(4.516 2.443)" fill="#1a1a1a"/>
  </g>
</svg>
