<svg id="icono_buscar" xmlns="http://www.w3.org/2000/svg" xmlns:xlink="http://www.w3.org/1999/xlink" width="20" height="20" viewBox="0 0 20 20">
  <defs>
    <clipPath id="clip-path">
      <rect id="Rectángulo_99" data-name="Rectángulo 99" width="20" height="20" fill="#fff" stroke="#707070" stroke-width="1"/>
    </clipPath>
  </defs>
  <g id="Enmascarar_grupo_30" data-name="Enmascarar grupo 30" clip-path="url(#clip-path)">
    <g id="Icon_feather-zoom-out" data-name="Icon feather-zoom-out" transform="translate(1.842 2)">
      <path id="Trazado_9" data-name="Trazado 9" d="M10.469,3A7.469,7.469,0,1,1,5.188,5.188,7.42,7.42,0,0,1,10.469,3Zm0,13.279a5.81,5.81,0,1,0-5.81-5.81A5.816,5.816,0,0,0,10.469,16.279Z" transform="translate(-3 -3)" fill="#1a1a1a"/>
      <path id="Trazado_10" data-name="Trazado 10" d="M27.915,28.745a.827.827,0,0,1-.587-.243l-3.61-3.61a.83.83,0,0,1,1.174-1.174l3.61,3.61a.83.83,0,0,1-.587,1.417Z" transform="translate(-12.146 -12.146)" fill="#1a1a1a"/>
    </g>
  </g>
</svg>
