<svg id="icono_ventilador" xmlns="http://www.w3.org/2000/svg" xmlns:xlink="http://www.w3.org/1999/xlink" width="25" height="25" viewBox="0 0 25 25">
  <defs>
    <clipPath id="clip-path">
      <rect id="Rectángulo_203" data-name="Rectángulo 203" width="25" height="25" fill="#1a1a1a" stroke="#707070" stroke-width="1"/>
    </clipPath>
  </defs>
  <g id="Enmascarar_grupo_69" data-name="Enmascarar grupo 69" clip-path="url(#clip-path)">
    <g id="Grupo_438" data-name="Grupo 438" transform="translate(-1120.457 -1048.785)">
      <path id="Trazado_219" data-name="Trazado 219" d="M19.029,8.222a4.076,4.076,0,0,0-2.987-.575A4.185,4.185,0,0,0,13.475,9.3c-.158-.424-.3-.794-.435-1.166-.334-.907-.682-1.809-1-2.722a3.366,3.366,0,0,1,.73-3.572A5.645,5.645,0,0,1,17.83.042a5.508,5.508,0,0,1,2.9,1.04,2.346,2.346,0,0,1,.668,3.327c-.1.168-.2.332-.309.491-.372.537-.772,1.056-1.116,1.61s-.617,1.117-.94,1.711" transform="translate(1116.328 1051)" fill="#1c1e28"/>
      <path id="Trazado_220" data-name="Trazado 220" d="M7.053,21.85c.179,2.488,1.045,3.5,3.686,4.3-.056.081-.1.158-.159.226-.735.885-1.5,1.745-2.2,2.656A3.71,3.71,0,0,1,3.742,30.2,6.4,6.4,0,0,1,.078,23.718a2.288,2.288,0,0,1,2.394-1.994c.64-.005,1.279.1,1.919.121.879.022,1.76.006,2.662.006" transform="translate(1122 1040.573)" fill="#1c1e28"/>
      <path id="Trazado_221" data-name="Trazado 221" d="M25,24.44c2.088-1.424,2.536-2.685,1.868-5.354l1.938.333c.656.113,1.313.217,1.966.343a3.547,3.547,0,0,1,3.05,3.067A6.377,6.377,0,0,1,30.695,29.3,2.439,2.439,0,0,1,27,28.16c-.344-.665-.621-1.366-.972-2.027-.305-.575-.672-1.117-1.022-1.692" transform="translate(1109.998 1041.839)" fill="#1c1e28"/>
      <path id="Trazado_222" data-name="Trazado 222" d="M15.836,19.694a2.907,2.907,0,1,1,2.9,2.918,2.911,2.911,0,0,1-2.9-2.918" transform="translate(1114.399 1042.936)" fill="#1c1e28"/>
    </g>
  </g>
</svg>
