<svg xmlns="http://www.w3.org/2000/svg" xmlns:xlink="http://www.w3.org/1999/xlink" width="30" height="30" viewBox="0 0 30 30">
  <defs>
    <clipPath id="clip-path">
      <rect id="Rectángulo_76" data-name="Rectángulo 76" width="30" height="30" fill="#eeeff1" stroke="#707070" stroke-width="1"/>
    </clipPath>
  </defs>
  <g id="Enmascarar_grupo_18" data-name="Enmascarar grupo 18" clip-path="url(#clip-path)">
    <g id="Grupo_273" data-name="Grupo 273" transform="translate(467.113 -4997.094)">
      <path id="Trazado_102" data-name="Trazado 102" d="M16.658,4.629h6.309a2.779,2.779,0,0,1,2.945,2.929q0,8.633,0,17.266a.954.954,0,0,1-1.1,1.093H1.1c-.752,0-1.1-.346-1.1-1.091Q0,13.879,0,2.933A2.782,2.782,0,0,1,2.943,0Q8.336,0,13.728,0a2.777,2.777,0,0,1,2.929,2.916c0,.558,0,1.116,0,1.712M1.851,24.045H4.627c0-1.5,0-2.988,0-4.472A.943.943,0,0,1,5.7,18.513h5.262a.948.948,0,0,1,1.069,1.065q0,2.082,0,4.164v.3h2.777v-.281q0-10.411,0-20.822a.958.958,0,0,0-1.1-1.089H3.006c-.833,0-1.155.321-1.155,1.151q0,10.353,0,20.706ZM16.677,6.479V24.044h7.384v-.251q0-8.138,0-16.276A.938.938,0,0,0,23.023,6.48q-2.457,0-4.914,0Zm-6.51,13.9H6.5V24.05h3.666Z" transform="translate(-465 4999)" fill="#adaeb1"/>
      <path id="Trazado_103" data-name="Trazado 103" d="M49.787,61.709c-.308,0-.617.006-.925,0a.924.924,0,1,1,0-1.847c.616-.008,1.233-.009,1.85,0a.923.923,0,0,1,0,1.846c-.308.009-.616,0-.925,0" transform="translate(-509.226 4943.77)" fill="#adaeb1"/>
      <path id="Trazado_104" data-name="Trazado 104" d="M121.639,61.726c-.3,0-.6.005-.9,0a.924.924,0,1,1,.011-1.848q.9-.009,1.792,0a.925.925,0,1,1-.011,1.849c-.3,0-.6,0-.9,0" transform="translate(-575.546 4943.752)" fill="#adaeb1"/>
      <path id="Trazado_105" data-name="Trazado 105" d="M49.779,121.605c-.308,0-.617.007-.925,0a.927.927,0,0,1-.924-.918.916.916,0,0,1,.911-.928q.939-.017,1.879,0a.922.922,0,0,1,.013,1.844c-.318.012-.636,0-.954,0" transform="translate(-509.227 4888.502)" fill="#adaeb1"/>
      <path id="Trazado_106" data-name="Trazado 106" d="M121.693,119.795c.289,0,.578,0,.867,0a.924.924,0,1,1,.019,1.847q-.925.015-1.85,0a.923.923,0,1,1,.01-1.847c.318-.007.636,0,.954,0" transform="translate(-575.547 4888.462)" fill="#adaeb1"/>
      <path id="Trazado_107" data-name="Trazado 107" d="M49.782,181.527c-.308,0-.617.006-.925,0a.924.924,0,1,1,.009-1.847q.91-.012,1.821,0a.924.924,0,1,1-.009,1.848c-.3.005-.6,0-.9,0" transform="translate(-509.227 4833.208)" fill="#adaeb1"/>
      <path id="Trazado_108" data-name="Trazado 108" d="M121.649,181.509c-.308,0-.617.007-.925,0a.927.927,0,0,1-.922-.92.916.916,0,0,1,.913-.926q.939-.016,1.879,0a.922.922,0,0,1,.009,1.844c-.318.011-.636,0-.954,0" transform="translate(-575.548 4833.226)" fill="#adaeb1"/>
      <path id="Trazado_109" data-name="Trazado 109" d="M241.426,121.63c-.3,0-.6.005-.9,0a.924.924,0,1,1,.013-1.848q.9-.009,1.792,0a.925.925,0,1,1-.013,1.849c-.3,0-.6,0-.9,0" transform="translate(-686.081 4888.477)" fill="#adaeb1"/>
      <path id="Trazado_110" data-name="Trazado 110" d="M241.431,181.518c-.308,0-.617.007-.925,0a.923.923,0,0,1,0-1.846c.616-.01,1.233-.009,1.85,0a.924.924,0,1,1,0,1.847c-.308.007-.617,0-.925,0" transform="translate(-686.081 4833.216)" fill="#adaeb1"/>
      <path id="Trazado_111" data-name="Trazado 111" d="M241.436,241.414c-.308,0-.617.007-.925,0a.927.927,0,0,1-.92-.922.917.917,0,0,1,.915-.924q.939-.016,1.879,0a.922.922,0,0,1,0,1.844c-.318.011-.636,0-.954,0" transform="translate(-686.081 4777.948)" fill="#adaeb1"/>
    </g>
  </g>
</svg>
