<svg xmlns="http://www.w3.org/2000/svg" xmlns:xlink="http://www.w3.org/1999/xlink" width="30" height="30" viewBox="0 0 30 30">
  <defs>
    <clipPath id="clip-path">
      <rect id="Rectángulo_75" data-name="Rectángulo 75" width="30" height="30" transform="translate(0 -0.029)" fill="#fff" stroke="#707070" stroke-width="1"/>
    </clipPath>
  </defs>
  <g id="Enmascarar_grupo_17" data-name="Enmascarar grupo 17" transform="translate(0 0.029)" clip-path="url(#clip-path)">
    <path id="Trazado_71" data-name="Trazado 71" d="M24.537,7.645c-.1.515-.172,1.039-.316,1.542a12.9,12.9,0,0,1-2.487,4.495,33.252,33.252,0,0,1-6.659,6.1c-.739.531-1.51,1.015-2.263,1.526a.887.887,0,0,1-1.068,0,37.369,37.369,0,0,1-8.506-7.094A14.168,14.168,0,0,1,.4,9.51,7.056,7.056,0,0,1,4.625.479,6.9,6.9,0,0,1,12.07,2.072a2.243,2.243,0,0,0,.266.252.871.871,0,0,1,.132-.258A6.836,6.836,0,0,1,19.641.391a6.853,6.853,0,0,1,4.807,5.637c.035.186.06.375.089.562ZM1.524,7.1l-.064.012c.11.578.177,1.167.339,1.73a11.2,11.2,0,0,0,2.314,4.044,35.969,35.969,0,0,0,8.018,6.858.21.21,0,0,0,.274,0,39.912,39.912,0,0,0,6.788-5.485,16.51,16.51,0,0,0,2.933-3.916,6.7,6.7,0,0,0,.84-3.847,5.568,5.568,0,0,0-6.649-4.822,5.476,5.476,0,0,0-3.364,2.168.821.821,0,0,1-.811.4.912.912,0,0,1-.6-.437A5.56,5.56,0,0,0,1.524,7.1" transform="translate(2.731 5.727)" fill="#adaeb1"/>
  </g>
</svg>
